<?xml version="1.0" encoding="utf-8"?>
<!-- Generator: Adobe Illustrator 22.0.1, SVG Export Plug-In . SVG Version: 6.00 Build 0)  -->
<svg version="1.1" id="Layer_1" xmlns="http://www.w3.org/2000/svg" xmlns:xlink="http://www.w3.org/1999/xlink" x="0px" y="0px"
	 viewBox="0 0 230 51" enable-background="new 0 0 230 51" xml:space="preserve">
<g transform="translate(0 -1)">
	<g enable-background="new    ">
		<path fill="#011341" d="M5,15.3c-0.2,0.1-0.4,0.5-0.4,1.3c0,5.4,0.1,7.1,0.2,7.7c0.1,0.6,0.4,1.1,1.2,1.2c0.5,0.1,0.8,0.2,0.8,0.4
			c0,0.1-0.2,0.2-0.5,0.2c-1,0-1.9-0.1-3-0.1c-1.1,0-1.7,0.1-2.3,0.1c-0.4,0-0.6-0.1-0.6-0.2c0-0.1,0.1-0.2,0.6-0.3
			c1-0.3,1.3-0.4,1.3-1.7c0.1-1.4,0.1-4.8,0.1-10.5c0-5.4,0.1-7.6,0-9c0-1.2-0.3-1.3-1.1-1.7C1.1,2.6,1,2.5,1,2.4
			c0-0.1,0.2-0.2,0.6-0.3c1.1-0.3,1.9-0.5,2.6-0.9c0.2-0.1,0.3-0.1,0.4-0.1c0.1,0,0.2,0.3,0.2,0.8c0,1-0.2,12.1-0.1,12.8
			c0,0.1,0.1,0.2,0.1,0.1c0.4-0.4,1.4-1.1,2.2-1.5c0.6-0.3,1.5-0.6,2.5-0.6c1.1,0,2.4,0.4,3.2,1.6c0.4,0.5,0.8,1.6,0.8,3.9
			c0,2.7,0,4.9,0.1,6.3c0,0.7,0.1,1,1.2,1.2c0.5,0.1,0.6,0.2,0.6,0.3c0,0.1-0.3,0.3-0.6,0.3c-0.9,0-1.6-0.2-2.6-0.2
			c-1.2,0-1.5,0.1-2.3,0.1c-0.4,0-0.6-0.1-0.6-0.2c0-0.1,0.2-0.2,0.5-0.3c1-0.2,1-0.5,1.2-1.5c0.1-0.8,0.1-2.4,0.1-6.2
			c0-0.9-0.1-1.9-0.5-2.7c-0.5-0.8-1.3-1.3-2.5-1.3C6.7,13.9,5.5,14.7,5,15.3z"/>
		<path fill="#011341" d="M17.5,13.7c1-0.3,1.8-0.6,2.6-0.9c0.3-0.2,0.5-0.3,0.5-0.3c0.1,0,0.2,0.1,0.1,0.5
			c-0.1,0.7-0.1,2.9-0.1,5.2c0,3,0,5.7,0.1,6.3c0.1,0.7,0.4,0.9,1,1c0.4,0.1,0.5,0.1,0.5,0.3c0,0.2-0.3,0.3-0.6,0.3
			c-0.3,0-1.7-0.1-2.6-0.1c-1.2,0-1.8,0.1-2.2,0.1c-0.3,0-0.5-0.1-0.5-0.2c0-0.1,0.2-0.3,0.7-0.3c0.8-0.2,1.1-0.5,1.2-2
			c0-1.1,0.1-7.6,0.1-8c0-0.5,0-0.7-1-1.3c-0.2-0.1-0.3-0.2-0.3-0.3C17.1,13.9,17.2,13.8,17.5,13.7z M21.1,7.9c0,1-0.9,1.4-1.3,1.4
			c-0.6,0-1.2-0.6-1.2-1.3c0-0.9,0.7-1.4,1.3-1.4C20.7,6.5,21.1,7.2,21.1,7.9z"/>
		<path fill="#011341" d="M33.4,13.4c0.3,0.1,0.6,0.2,1.3,0.2s2.1-0.1,2.7-0.1c0.2,0,0.3,0.4,0.3,0.8c0,0.4-0.3,0.6-0.4,0.6
			c-0.5,0-1.8-0.1-2.2-0.1c-0.1,0-0.2,0.1-0.2,0.2c0,0.3,0.1,0.8,0.1,1.5c0,2.1-1,3.9-2.2,4.8c-1.2,0.8-2.3,0.9-2.8,0.9
			c-0.5,0-1.2-0.1-1.5-0.1c-0.1,0-0.4,0-0.4,0.1c-0.4,0.3-0.9,0.8-1.3,1.2c-0.3,0.3-0.4,0.7-0.4,0.8c0,1.1,1.5,1.5,3.3,1.5
			c1.1,0,3.1-0.1,4.1-0.1c1.5,0,2.1,0.4,2.8,0.9c0.8,0.7,1.2,1.8,1.2,3.1c0,2.4-1.9,4.6-4,5.8c-1.3,0.8-2.7,1.2-4.4,1.2
			c-2.9,0-5.3-1.4-5.3-4c0-0.7,0.4-1.2,0.6-1.5c0.3-0.3,1.6-2,2.3-2.8c0,0,0.1-0.3,0-0.3c-1-0.3-2.9-1.5-2.9-3
			c0-0.2,0.1-0.3,0.2-0.4c1-0.6,2.5-1.9,3-2.6c0,0,0-0.1-0.1-0.2c-1.2-0.7-2.8-2.3-2.8-4.5c0-1.6,0.6-2.6,1.5-3.4
			c1-1,2.5-1.5,3.8-1.5C31.5,12.5,33,13.2,33.4,13.4z M27.4,34.3c0.9,0.7,1.7,1,3.4,1c0.8,0,2.2,0,3.3-0.8c1-0.7,1.9-2.2,1.9-3.7
			S35.2,28,32.9,28c-1.4,0-3.1,0-4.1,0.1c-0.8,0-1.1,0.2-1.2,0.3c-0.8,0.6-1.5,1.9-1.5,3.1C26,32.2,26.4,33.5,27.4,34.3z M27.7,13.8
			c-0.6,0.7-1,2-1,3.2c0,1.7,0.6,3.2,1.1,3.8c0.5,0.6,1.2,1.1,2.2,1.1c1.7,0,2.7-2,2.7-3.6c0-1.6-0.3-3.1-1.1-4
			c-0.6-0.8-1.2-1.2-2.2-1.2C28.9,12.9,28.3,13.3,27.7,13.8z"/>
		<path fill="#011341" d="M42.8,15.3c-0.2,0.1-0.4,0.5-0.4,1.3c0,5.4,0.1,7.1,0.2,7.7c0.1,0.6,0.4,1.1,1.2,1.2
			c0.5,0.1,0.8,0.2,0.8,0.4c0,0.1-0.2,0.2-0.5,0.2c-1,0-1.9-0.1-3-0.1c-1.1,0-1.7,0.1-2.3,0.1c-0.4,0-0.6-0.1-0.6-0.2
			c0-0.1,0.1-0.2,0.6-0.3c1-0.3,1.3-0.4,1.3-1.7c0.1-1.4,0.1-4.8,0.1-10.5c0-5.4,0.1-7.6,0-9c0-1.2-0.3-1.3-1.1-1.7
			c-0.1-0.1-0.3-0.2-0.3-0.3c0-0.1,0.2-0.2,0.6-0.3c1.1-0.3,1.9-0.5,2.6-0.9c0.2-0.1,0.3-0.1,0.4-0.1c0.1,0,0.2,0.3,0.2,0.8
			c0,1-0.2,12.1-0.1,12.8c0,0.1,0.1,0.2,0.1,0.1c0.4-0.4,1.4-1.1,2.2-1.5c0.6-0.3,1.5-0.6,2.5-0.6c1.1,0,2.4,0.4,3.2,1.6
			c0.4,0.5,0.8,1.6,0.8,3.9c0,2.7,0,4.9,0.1,6.3c0,0.7,0.1,1,1.2,1.2c0.5,0.1,0.6,0.2,0.6,0.3c0,0.1-0.3,0.3-0.6,0.3
			c-0.9,0-1.6-0.2-2.6-0.2c-1.2,0-1.5,0.1-2.3,0.1c-0.4,0-0.6-0.1-0.6-0.2c0-0.1,0.2-0.2,0.5-0.3c1-0.2,1-0.5,1.2-1.5
			C49,23.3,49,21.7,49,18c0-0.9-0.1-1.9-0.5-2.7c-0.5-0.8-1.3-1.3-2.5-1.3C44.5,13.9,43.4,14.7,42.8,15.3z"/>
		<path fill="#011341" d="M61.7,24.7c-0.3-0.5-0.4-1.2-0.4-2.1v-7.5c0-0.4,0-0.6-0.2-0.7s-0.5-0.2-0.9-0.3c-0.3,0-0.5-0.2-0.5-0.3
			c0-0.1,0-0.2,0.4-0.4c0.9-0.4,2.1-1.3,3-2.4c0.3-0.4,0.6-0.3,0.6-0.1c0,0.3-0.1,1.4,0,1.8c0,0.1,0,0.3,0.2,0.3
			c0.6,0,3.6-0.1,4.4-0.1c0.1,0,0.2,0.2,0.2,0.5c0,0.6-0.2,0.9-0.4,0.9c-1.3,0-3,0-4,0c-0.4,0-0.5,0.1-0.5,0.3c0,0.6,0,6.3,0.1,7.4
			c0.1,1.2,0.1,1.6,0.4,1.9c0.5,0.7,1.3,1,2.2,1c1,0,1.7-0.3,2-0.5c0.3-0.2,0.4-0.1,0.4,0c0,0.2-0.3,0.6-0.8,0.9
			c-0.8,0.6-1.9,0.9-2.9,0.9C63.4,26.3,62.3,25.8,61.7,24.7z"/>
		<path fill="#011341" d="M80.5,16.4c0,0.2-0.2,0.4-0.4,0.4c-0.3,0-5-0.1-5.8-0.1h-1.9c-0.1,0-0.3,0.2-0.3,0.3c-0.2,0.4-0.3,1-0.3,2
			c0,1.8,0.7,3.3,1.7,4.4c1,1.1,2.4,1.5,3.6,1.5c1.5,0,2.6-0.3,3.4-1.2c0.3-0.3,0.4-0.2,0.4,0c0,0.1-0.1,0.3-0.4,0.6
			c-1.4,1.5-3,2.3-5,2.3c-1.7,0-3.2-0.7-4.3-1.8c-1.1-1.2-1.7-2.9-1.7-4.8c0-1.7,0.6-3.8,2.1-5.3c1-0.9,2.6-1.8,4.5-1.8
			C78.2,12.7,80.5,14.2,80.5,16.4z M73.1,14.5c-0.4,0.5-0.8,1.2-0.8,1.5c0,0.1,0.1,0.1,0.1,0.1l4.7,0c0.8,0,0.9-0.4,0.9-0.7
			c0-0.4-0.1-1.1-0.5-1.5c-0.4-0.4-1-0.7-1.8-0.7C74.8,13.2,73.9,13.7,73.1,14.5z"/>
		<path fill="#011341" d="M91.1,14.5c0.4,0.7,0.5,2.2,0.5,3.3c0,1.3-0.1,4.8-0.1,5.7c0,0.7,0.3,1.4,1.3,1.4c0.3,0,0.6-0.1,1-0.3
			c0.2-0.1,0.4,0,0.2,0.3c-0.5,1-1.6,1.5-2.8,1.5c-1,0-1.8-0.8-2.1-1.6c0-0.1-0.1-0.1-0.2,0c-1.1,1-2.2,1.6-3.5,1.6
			c-1.4,0-2.9-1.2-2.9-3.1c0-1.2,1-1.9,1.3-2.1c0.9-0.5,4.1-1.4,4.9-1.7c0.3-0.1,0.5-0.4,0.5-0.5c0.1-0.4,0.1-1.2,0.1-1.7
			c0-1.5-0.3-2.5-0.9-3c-0.5-0.4-1.1-0.6-1.5-0.6c-0.5,0-0.9,0.1-1.4,0.4c-0.3,0.2-0.5,0.5-0.5,0.9c0,0.1,0,0.4,0,0.7
			c0,0.1-0.1,0.2-0.1,0.3c-0.4,0.3-1.4,0.8-1.7,0.8c-0.2,0-0.4-0.2-0.4-0.3c0-0.3,0.3-0.6,0.7-1.1c0.8-1,2-1.7,2.7-2.1
			c0.8-0.4,1.5-0.6,2.2-0.6C89.5,12.7,90.6,13.4,91.1,14.5z M88.7,24.4c0.1-0.1,0.4-0.5,0.4-0.9c0.1-0.6,0.2-2.1,0.2-3.4
			c0,0-0.1-0.2-0.1-0.2c-0.5,0.1-2.6,0.8-3.3,1.2c-0.4,0.2-0.9,0.8-0.9,1.8c0,1.2,1,2,2.2,2C87.7,25,88.3,24.8,88.7,24.4z"/>
		<path fill="#011341" d="M102,24.7c-0.3-0.5-0.4-1.2-0.4-2.1v-7.5c0-0.4,0-0.6-0.2-0.7s-0.5-0.2-0.9-0.3c-0.3,0-0.5-0.2-0.5-0.3
			c0-0.1,0-0.2,0.4-0.4c0.9-0.4,2.1-1.3,3-2.4c0.3-0.4,0.6-0.3,0.6-0.1c0,0.3-0.1,1.4,0,1.8c0,0.1,0,0.3,0.2,0.3
			c0.6,0,3.6-0.1,4.4-0.1c0.1,0,0.2,0.2,0.2,0.5c0,0.6-0.2,0.9-0.4,0.9c-1.3,0-3,0-4,0c-0.4,0-0.5,0.1-0.5,0.3c0,0.6,0,6.3,0.1,7.4
			c0.1,1.2,0.1,1.6,0.4,1.9c0.5,0.7,1.3,1,2.2,1c1,0,1.7-0.3,2-0.5c0.3-0.2,0.4-0.1,0.4,0c0,0.2-0.3,0.6-0.8,0.9
			c-0.8,0.6-1.9,0.9-2.9,0.9C103.7,26.3,102.6,25.8,102,24.7z"/>
		<path fill="#011341" d="M118.5,14.5c0.4,0.7,0.5,2.2,0.5,3.3c0,1.3-0.1,4.8-0.1,5.7c0,0.7,0.3,1.4,1.3,1.4c0.3,0,0.6-0.1,1-0.3
			c0.2-0.1,0.4,0,0.2,0.3c-0.5,1-1.6,1.5-2.8,1.5c-1,0-1.8-0.8-2.1-1.6c0-0.1-0.1-0.1-0.2,0c-1.1,1-2.2,1.6-3.5,1.6
			c-1.4,0-2.9-1.2-2.9-3.1c0-1.2,1-1.9,1.3-2.1c0.9-0.5,4.1-1.4,4.9-1.7c0.3-0.1,0.5-0.4,0.5-0.5c0.1-0.4,0.1-1.2,0.1-1.7
			c0-1.5-0.3-2.5-0.9-3c-0.5-0.4-1.1-0.6-1.5-0.6c-0.5,0-0.9,0.1-1.4,0.4c-0.3,0.2-0.5,0.5-0.5,0.9c0,0.1,0,0.4,0,0.7
			c0,0.1-0.1,0.2-0.1,0.3c-0.4,0.3-1.4,0.8-1.7,0.8c-0.2,0-0.4-0.2-0.4-0.3c0-0.3,0.3-0.6,0.7-1.1c0.8-1,2-1.7,2.7-2.1
			c0.8-0.4,1.5-0.6,2.2-0.6C117,12.7,118.1,13.4,118.5,14.5z M116.1,24.4c0.1-0.1,0.4-0.5,0.4-0.9c0.1-0.6,0.2-2.1,0.2-3.4
			c0,0-0.1-0.2-0.1-0.2c-0.5,0.1-2.6,0.8-3.3,1.2c-0.4,0.2-0.9,0.8-0.9,1.8c0,1.2,1,2,2.2,2C115.1,25,115.7,24.8,116.1,24.4z"/>
		<path fill="#011341" d="M126.5,17.3c0,4.5,0,6.2,0.1,6.9c0,1,0.3,1.2,1.3,1.4c0.2,0,0.5,0.1,0.5,0.3c0,0.1-0.3,0.3-0.7,0.3
			c-0.6,0-1.9-0.1-2.5-0.1c-0.9,0-1.8,0.1-2.4,0.1c-0.4,0-0.6,0-0.6-0.2c0-0.2,0.2-0.2,0.6-0.3c0.9-0.2,1.1-0.5,1.3-2.1
			c0.1-1.3,0.2-7.4,0.3-11.7c0-2.9,0-5.9,0-7.5c0-0.8-0.1-1-1-1.5c-0.3-0.1-0.4-0.2-0.4-0.3c0-0.1,0.2-0.2,0.5-0.3
			c1-0.2,1.9-0.5,2.7-0.8c0.1,0,0.3-0.1,0.4-0.1c0.1,0,0.1,0.2,0.1,0.4c0,0.3-0.1,6.5-0.1,11.9V17.3z"/>
		<path fill="#011341" d="M140.1,13.1c0.8,0,2.2-0.2,3.2-0.2c0.4,0,0.5,0.1,0.5,0.3c0,0.1-0.1,0.2-0.5,0.3c-1.2,0.2-1.8,0.4-3.3,1.6
			c-0.9,0.7-2.7,2.2-3.4,2.9c-0.1,0.1,0,0.2,0,0.3c1.1,1.3,3.7,4,5.4,5.8c1,1,1.5,1.4,2.6,1.7c0.3,0.1,0.5,0.2,0.5,0.3
			c0,0.2-0.3,0.3-0.6,0.3c-1.2,0-2.6-0.2-4-0.2c-0.6,0-1.1,0-1.6,0c-0.4,0-0.6,0-0.6-0.2c0-0.2,0.2-0.3,0.8-0.4
			c0.6-0.1,0.7-0.5,0.4-1c-0.8-0.9-3.3-3.6-4.4-4.6c-0.3-0.3-0.5-0.5-0.7-0.5c-0.1,0-0.1,0.2-0.1,0.4c0,0.6-0.1,1.8,0,3.8
			c0,1.7,0.3,1.8,1.4,2.1c0.4,0.1,0.5,0.2,0.5,0.3c0,0.2-0.3,0.3-0.7,0.3c-1,0-1.8-0.1-2.7-0.1c-1.2,0-1.9,0.1-2.3,0.1
			c-0.4,0-0.6-0.1-0.6-0.3c0-0.1,0.2-0.2,0.5-0.3c1.1-0.3,1.4-0.6,1.4-1.8c0.1-2.6,0.2-5.7,0.2-8.5c0-2.8,0.1-7.4,0.1-10.2
			c0-0.8,0-1.3-0.1-1.7c-0.1-0.3-0.4-0.5-0.8-0.7c-0.2-0.1-0.3-0.2-0.3-0.3c0-0.1,0.2-0.2,0.6-0.3c1.4-0.4,2.4-0.8,2.6-0.9
			c0.3-0.1,0.4-0.2,0.6-0.2c0,0,0.1,0.1,0.1,0.3c-0.1,1.2-0.2,4.4-0.2,7c0,1.1-0.2,5.9-0.2,9.8c0,0.4,0.1,0.6,0.2,0.6
			c0.1,0,0.4-0.2,0.7-0.4c1.4-1.2,3.2-2.8,3.9-3.6c0.2-0.2,0.4-0.5,0.4-0.6c0-0.2-0.3-0.4-1-0.6c-0.3,0-0.6-0.1-0.6-0.3
			c0-0.1,0.3-0.3,0.6-0.3C138.8,13.1,139.7,13.1,140.1,13.1z"/>
		<path fill="#011341" d="M148.4,15.5c0,1.5,1.4,2.4,2.3,2.9c2.3,1.5,3.3,2.4,3.3,4.2c0,1.6-1.2,2.6-1.9,3c-0.8,0.5-2,0.8-2.9,0.8
			c-0.9,0-1.8-0.2-2.8-0.6c-0.3-0.1-0.5-0.4-0.5-0.6c0-0.5-0.1-1.4-0.1-1.8c-0.1-0.5,0-0.6,0.1-0.6c0.1,0,0.2,0,0.5,0.7
			c0.3,0.9,0.9,1.5,1.5,1.9c0.5,0.4,1.1,0.4,1.6,0.4c1,0,2.3-0.9,2.3-2.4c0-1.4-0.9-2.1-2.4-3c-1.5-1-3-2.3-3-3.9
			c0-1.3,0.6-2.3,1.4-2.8c0.6-0.5,1.7-1,3-1c1,0,2,0.3,2.4,0.4c0.1,0.1,0.2,0.2,0.2,0.3c0,0.4,0.2,1.1,0.2,1.7
			c0,0.4-0.1,0.6-0.2,0.6c-0.1,0-0.2-0.2-0.3-0.4c-0.2-0.5-0.3-1-0.9-1.5c-0.4-0.3-1-0.5-1.7-0.5C149.4,13.2,148.4,14,148.4,15.5z"
			/>
		<path fill="#011341" d="M157.5,15.5c0-0.9,0.7-1.6,1.6-1.6c0.9,0,1.4,0.9,1.4,1.5c0,1.1-0.9,1.6-1.5,1.6
			C158.1,17.1,157.5,16.4,157.5,15.5z M157.5,24.8c0-0.9,0.7-1.6,1.6-1.6c0.9,0,1.4,0.9,1.4,1.5c0,1.1-0.9,1.6-1.5,1.6
			C158.1,26.4,157.5,25.6,157.5,24.8z"/>
	</g>
	<g enable-background="new    ">
		<path fill="#F26A6C" d="M174,2.5c0.1-0.1,0.6-0.5,0.8-0.5c0.2,0,0.3,0.1,0,0.8c-3.2,8.3-8.7,23.4-9.6,25.3
			c-0.1,0.3-0.5,0.6-0.8,0.6c-0.1,0-0.3,0-0.1-0.6C167.6,19.7,170.8,10.8,174,2.5z"/>
		<path fill="#F26A6C" d="M187.3,2.5c0.1-0.1,0.6-0.5,0.8-0.5c0.2,0,0.3,0.1,0,0.8c-3.2,8.3-8.7,23.4-9.6,25.3
			c-0.1,0.3-0.5,0.6-0.8,0.6c-0.1,0-0.3,0-0.1-0.6C180.9,19.7,184.1,10.8,187.3,2.5z"/>
		<path fill="#F26A6C" d="M202.1,13.9c0.8,0.9,1.1,2.7,1.2,4.7c0,1.9,0,2.2,0,4c0,2.4,0.1,2.7,1.1,2.9c0.3,0.1,0.5,0.2,0.5,0.4
			c0,0.2-0.3,0.3-0.6,0.3c-0.5,0-1.5-0.1-2.3-0.1c-1.2,0-1.7,0.1-2.2,0.1c-0.3,0-0.6-0.1-0.6-0.2c0-0.1,0.2-0.3,0.7-0.4
			c0.9-0.2,1-0.5,1-1.5v-4.9c0-2.9-0.3-3.8-1.2-4.5c-0.5-0.4-1.2-0.7-2.1-0.7c-0.9,0-1.9,0.4-2.8,1.2c-0.3,0.3-0.4,0.8-0.4,1.1
			c0,0.4,0,2.3,0,4.4c0,2.3,0.1,3.3,0.2,3.8c0.1,0.8,0.5,1,1.1,1.2c0.4,0.1,0.6,0.2,0.6,0.4c0,0.2-0.4,0.2-0.7,0.2
			c-0.3,0-2.1-0.1-2.8-0.1c-0.5,0-1.3,0.1-1.9,0.1c-0.4,0-0.7-0.1-0.7-0.3c0-0.1,0.3-0.3,0.8-0.4c0.9-0.2,1-0.4,1.1-1.2
			c0.1-2.6,0.1-5.9,0.1-8.8c0-0.4-0.1-0.8-0.9-1.2c-0.2-0.1-0.3-0.2-0.3-0.3c0-0.1,0.2-0.2,0.5-0.3c0.8-0.2,2.2-0.8,2.8-1.2
			c0.1-0.1,0.3,0.1,0.3,0.3c0,0.4-0.1,1.4-0.1,1.9c0,0.1,0.1,0.2,0.2,0.1c0.9-0.7,1.8-1.3,2.6-1.6c0.8-0.4,1.5-0.4,2.1-0.4
			C200.8,12.7,201.7,13.4,202.1,13.9z"/>
		<path fill="#F26A6C" d="M209.7,13c0.4,0,0.6,0.1,0.6,0.3c0,0.1-0.3,0.3-0.5,0.3c-0.8,0.3-0.9,0.4-0.5,1.3c0.5,1.3,2.4,6.2,3.2,7.7
			c0.1,0.1,0.2,0.1,0.2,0c0.5-1.2,2.5-6.4,2.8-7.2c0.2-0.4,0.2-0.9,0.2-1c0-0.3-0.2-0.5-0.8-0.7c-0.5-0.1-0.6-0.2-0.6-0.3
			c0-0.1,0.2-0.2,0.5-0.2c0.4,0,1.2,0.1,1.7,0.1c0.6,0,1.1-0.1,1.7-0.1c0.2,0,0.4,0,0.4,0.1c0,0.1-0.1,0.3-0.5,0.4
			c-0.8,0.2-1.1,0.5-1.7,1.8c-0.4,0.9-2.7,6.4-3.2,7.8c-0.4,1.2-0.8,2-1.5,4c-0.9,2.1-2.2,5.8-2.7,7.1c-0.3,0.6-0.4,1-0.7,1.3
			c-0.4,0.5-0.8,0.6-1.2,0.6c-0.6,0-1.2-0.5-1.2-1.2c0-0.5,0.5-1,1-1c0.3,0,0.5,0.1,0.7,0.1c0.4,0,0.7-0.1,0.9-0.6
			c0.4-0.8,1.4-3.7,2.6-6.8c0.1-0.5,0.1-0.8,0-1.2c-0.5-1.4-2.8-7.2-4.5-10.8c-0.3-0.5-0.7-0.8-1.3-1c-0.4-0.1-0.6-0.3-0.6-0.4
			c0-0.2,0.3-0.3,0.6-0.3c0.6,0,1.7,0.1,2.5,0.1C208.3,13.1,209.2,13,209.7,13z"/>
		<path fill="#F26A6C" d="M221.5,18.9c0,2.4,0.9,3.9,1.8,4.7c0.9,0.9,2.3,1.3,3.4,1.3c1.5,0,2.4-0.3,3.7-1.4c0.1-0.1,0.3-0.1,0.3,0
			c0,0.1-0.1,0.3-0.3,0.6c-0.6,0.9-2.3,2.4-5,2.4c-1.6,0-3.3-0.6-4.5-1.8c-1.2-1.2-1.8-2.9-1.8-4.9c0-2.3,1.1-4,2.2-5
			c1.1-1,3-2.1,5.3-2.1c1.5,0,2.7,0.4,3.3,0.9c0.4,0.2,0.5,0.5,0.5,0.7c0,0.7-0.6,1.2-0.9,1.2c-0.1,0-0.4-0.1-0.6-0.4
			c-0.6-0.6-1.5-1.2-2-1.5c-0.4-0.2-1-0.3-1.4-0.3C224,13.3,221.5,14.7,221.5,18.9z"/>
	</g>
	<g enable-background="new    ">
		<path fill="#051542" d="M3,45c0-0.6,0.2-1,0.6-1.2s0.9-0.4,1.6-0.4c0.4,0,0.8,0.1,1.1,0.2c0.4,0.1,0.6,0.3,0.8,0.4v-0.3
			c0-0.1,0-0.2,0.1-0.2c0.1-0.1,0.1-0.1,0.2-0.1s0.1,0,0.2,0.1s0.1,0.1,0.1,0.2l0,1.4c0,0.1,0,0.2-0.1,0.2s-0.1,0.1-0.2,0.1
			c-0.1,0-0.2,0-0.2-0.1s-0.1-0.2-0.1-0.5c-0.1-0.3-0.4-0.5-0.7-0.6S5.6,44,5.1,44c-1,0-1.4,0.3-1.4,0.9c0,0.2,0.1,0.4,0.2,0.5
			c0.1,0.1,0.4,0.2,0.7,0.3l1.8,0.4c0.4,0.1,0.8,0.2,1,0.5s0.4,0.6,0.4,1c0,0.5-0.2,0.9-0.6,1.2c-0.4,0.3-0.9,0.4-1.6,0.4
			c-0.4,0-0.8-0.1-1.2-0.2s-0.7-0.3-0.9-0.6v0.4c0,0.1,0,0.2-0.1,0.2c0,0-0.1,0.1-0.2,0.1C3,49,3,49,2.9,48.9s-0.1-0.1-0.1-0.2
			l0-1.5c0-0.1,0-0.2,0.1-0.3s0.1-0.1,0.2-0.1c0.1,0,0.1,0,0.2,0.1s0.1,0.1,0.1,0.3c0,0.3,0.1,0.5,0.3,0.7s0.4,0.4,0.8,0.5
			s0.7,0.2,1.1,0.2c0.5,0,0.9-0.1,1.2-0.2C6.9,48.2,7,47.9,7,47.6C7,47.3,7,47.2,6.8,47c-0.1-0.1-0.3-0.2-0.6-0.3l-1.8-0.4
			c-0.5-0.1-0.8-0.2-1.1-0.5S3,45.4,3,45z"/>
		<path fill="#051542" d="M16.9,49h-5.4c-0.1,0-0.2,0-0.2-0.1s-0.1-0.1-0.1-0.2c0-0.1,0-0.1,0.1-0.2c0.1-0.1,0.1-0.1,0.2-0.1H14
			v-4.4l-2.3,0.3l0,0c-0.1,0-0.2,0-0.2-0.1c-0.1-0.1-0.1-0.1-0.1-0.2c0-0.1,0-0.1,0.1-0.2c0-0.1,0.1-0.1,0.2-0.1l2.7-0.4
			c0,0,0,0,0.1,0c0.1,0,0.1,0,0.2,0.1c0,0,0.1,0.1,0.1,0.2v4.8h2.3c0.1,0,0.2,0,0.2,0.1c0,0.1,0.1,0.1,0.1,0.2c0,0.1,0,0.1-0.1,0.2
			S17,49,16.9,49z M13.6,41.6c0-0.2,0.1-0.3,0.2-0.4s0.2-0.2,0.4-0.2s0.3,0.1,0.4,0.2s0.2,0.2,0.2,0.4c0,0.2-0.1,0.3-0.2,0.4
			s-0.2,0.2-0.4,0.2s-0.3-0.1-0.4-0.2S13.6,41.7,13.6,41.6z"/>
		<path fill="#051542" d="M20.7,43.8l0,0.5c0.2-0.2,0.5-0.4,0.9-0.6c0.3-0.2,0.7-0.2,1.1-0.2c0.5,0,1,0.1,1.4,0.4s0.7,0.6,0.9,1
			s0.3,0.9,0.3,1.5c0,0.5-0.1,1-0.3,1.5c-0.2,0.4-0.5,0.8-0.9,1c-0.4,0.2-0.8,0.4-1.4,0.4c-0.4,0-0.8-0.1-1.1-0.2s-0.6-0.3-0.9-0.5
			V51h1.5c0.1,0,0.2,0,0.2,0.1c0.1,0.1,0.1,0.1,0.1,0.2c0,0.1,0,0.1-0.1,0.2s-0.1,0.1-0.2,0.1h-2.7c-0.1,0-0.2,0-0.2-0.1
			c-0.1-0.1-0.1-0.1-0.1-0.2c0-0.1,0-0.1,0.1-0.2s0.1-0.1,0.2-0.1h0.6v-6.8l-0.7,0.1c0,0,0,0-0.1,0s0,0-0.1,0c-0.1,0-0.1,0-0.2-0.1
			s-0.1-0.1-0.1-0.2c0-0.1,0-0.1,0.1-0.2c0-0.1,0.1-0.1,0.2-0.1l1.1-0.2c0.1,0,0.1,0,0.1,0C20.6,43.5,20.7,43.6,20.7,43.8z
			 M22.6,48.6c0.4,0,0.8-0.1,1.1-0.3s0.5-0.5,0.7-0.8s0.2-0.7,0.2-1.1c0-0.4-0.1-0.8-0.2-1.1c-0.1-0.3-0.4-0.6-0.6-0.8
			s-0.6-0.3-1-0.3c-0.4,0-0.8,0.1-1.1,0.3s-0.6,0.4-0.8,0.7v2.7C21.2,48.3,21.8,48.6,22.6,48.6z"/>
		<path fill="#051542" d="M31.4,48.4c0,0.2-0.1,0.4-0.2,0.5s-0.3,0.2-0.5,0.2c-0.2,0-0.4-0.1-0.5-0.2c-0.1-0.1-0.2-0.3-0.2-0.5
			s0.1-0.4,0.2-0.5s0.3-0.2,0.5-0.2s0.4,0.1,0.5,0.2C31.3,48,31.4,48.2,31.4,48.4z"/>
		<path fill="#051542" d="M45.3,45c0-0.6,0.2-1,0.6-1.2s0.9-0.4,1.6-0.4c0.4,0,0.8,0.1,1.1,0.2c0.4,0.1,0.6,0.3,0.8,0.4v-0.3
			c0-0.1,0-0.2,0.1-0.2c0.1-0.1,0.1-0.1,0.2-0.1s0.1,0,0.2,0.1s0.1,0.1,0.1,0.2l0,1.4c0,0.1,0,0.2-0.1,0.2s-0.1,0.1-0.2,0.1
			c-0.1,0-0.2,0-0.2-0.1s-0.1-0.2-0.1-0.5c-0.1-0.3-0.4-0.5-0.7-0.6S48,44,47.5,44c-1,0-1.4,0.3-1.4,0.9c0,0.2,0.1,0.4,0.2,0.5
			c0.1,0.1,0.4,0.2,0.7,0.3l1.8,0.4c0.4,0.1,0.8,0.2,1,0.5s0.4,0.6,0.4,1c0,0.5-0.2,0.9-0.6,1.2c-0.4,0.3-0.9,0.4-1.6,0.4
			c-0.4,0-0.8-0.1-1.2-0.2s-0.7-0.3-0.9-0.6v0.4c0,0.1,0,0.2-0.1,0.2c0,0-0.1,0.1-0.2,0.1c-0.1,0-0.1,0-0.2-0.1s-0.1-0.1-0.1-0.2
			l0-1.5c0-0.1,0-0.2,0.1-0.3s0.1-0.1,0.2-0.1c0.1,0,0.1,0,0.2,0.1s0.1,0.1,0.1,0.3c0,0.3,0.1,0.5,0.3,0.7s0.4,0.4,0.8,0.5
			s0.7,0.2,1.1,0.2c0.5,0,0.9-0.1,1.2-0.2c0.3-0.2,0.4-0.4,0.4-0.7c0-0.2-0.1-0.4-0.2-0.6c-0.1-0.1-0.3-0.2-0.6-0.3l-1.8-0.4
			c-0.5-0.1-0.8-0.2-1.1-0.5S45.3,45.4,45.3,45z"/>
		<path fill="#051542" d="M54.6,43.8l0,0.5c0.2-0.2,0.5-0.4,0.9-0.6c0.3-0.2,0.7-0.2,1.1-0.2c0.5,0,1,0.1,1.4,0.4s0.7,0.6,0.9,1
			s0.3,0.9,0.3,1.5c0,0.5-0.1,1-0.3,1.5c-0.2,0.4-0.5,0.8-0.9,1c-0.4,0.2-0.8,0.4-1.4,0.4c-0.4,0-0.8-0.1-1.1-0.2s-0.6-0.3-0.9-0.5
			V51h1.5c0.1,0,0.2,0,0.2,0.1c0.1,0.1,0.1,0.1,0.1,0.2c0,0.1,0,0.1-0.1,0.2s-0.1,0.1-0.2,0.1h-2.7c-0.1,0-0.2,0-0.2-0.1
			c-0.1-0.1-0.1-0.1-0.1-0.2c0-0.1,0-0.1,0.1-0.2s0.1-0.1,0.2-0.1H54v-6.8l-0.7,0.1c0,0,0,0-0.1,0s0,0-0.1,0c-0.1,0-0.1,0-0.2-0.1
			s-0.1-0.1-0.1-0.2c0-0.1,0-0.1,0.1-0.2c0-0.1,0.1-0.1,0.2-0.1l1.1-0.2c0.1,0,0.1,0,0.1,0C54.5,43.5,54.6,43.6,54.6,43.8z
			 M56.5,48.6c0.4,0,0.8-0.1,1.1-0.3s0.5-0.5,0.7-0.8s0.2-0.7,0.2-1.1c0-0.4-0.1-0.8-0.2-1.1c-0.1-0.3-0.4-0.6-0.6-0.8
			S57,44,56.6,44c-0.4,0-0.8,0.1-1.1,0.3s-0.6,0.4-0.8,0.7v2.7C55.1,48.3,55.7,48.6,56.5,48.6z"/>
		<path fill="#051542" d="M61.8,46.2c0-0.6,0.1-1.1,0.4-1.5s0.6-0.7,1.1-1s1-0.3,1.5-0.3c0.5,0,0.9,0.1,1.3,0.3
			c0.4,0.2,0.7,0.4,0.9,0.8s0.3,0.8,0.3,1.2c0,0.2,0,0.3-0.1,0.4c-0.1,0.1-0.2,0.2-0.4,0.2l-4.3,0c0,0.7,0.3,1.3,0.7,1.6
			s1,0.6,1.7,0.6c0.3,0,0.7-0.1,1-0.2c0.3-0.1,0.6-0.3,0.9-0.6c0.1-0.1,0.2-0.1,0.3-0.1c0.1,0,0.1,0,0.2,0.1s0.1,0.1,0.1,0.2
			c0,0.1,0,0.2-0.1,0.3c-0.2,0.3-0.6,0.5-1,0.6s-0.9,0.2-1.2,0.2c-0.6,0-1.1-0.1-1.6-0.3s-0.8-0.6-1.1-1
			C61.9,47.3,61.8,46.8,61.8,46.2z M64.8,44c-0.7,0-1.2,0.2-1.6,0.5s-0.7,0.8-0.7,1.4l4.2,0c0-0.5-0.2-0.9-0.4-1.3S65.5,44,64.8,44z
			"/>
		<path fill="#051542" d="M74.4,45.7c0-0.5-0.1-0.9-0.3-1.2S73.5,44,73,44c-0.3,0-0.6,0-0.8,0.1c-0.2,0-0.5,0.1-0.7,0.2
			c0,0.4-0.1,0.6-0.1,0.8s-0.2,0.3-0.3,0.3c-0.1,0-0.2,0-0.3-0.1s-0.1-0.2-0.1-0.4c0-0.3,0.1-0.5,0.3-0.7s0.5-0.4,0.8-0.5
			s0.8-0.2,1.2-0.2c0.5,0,0.9,0.1,1.2,0.3s0.5,0.5,0.6,0.8C75,44.9,75,45.4,75,46v2.1c0,0.2,0,0.3,0.1,0.3c0.1,0.1,0.2,0.1,0.3,0.1
			c0.1,0,0.2,0,0.4-0.1c0.1-0.1,0.2-0.1,0.3-0.2c0.1-0.1,0.1-0.1,0.2-0.1c0.1,0,0.1,0,0.2,0.1s0.1,0.1,0.1,0.2c0,0.1,0,0.1-0.1,0.2
			c-0.1,0.2-0.3,0.3-0.5,0.4C75.7,49,75.5,49,75.3,49c-0.2,0-0.4-0.1-0.6-0.2c-0.2-0.1-0.3-0.3-0.3-0.7c-0.2,0.3-0.5,0.5-0.9,0.6
			s-0.8,0.3-1.3,0.3c-0.5,0-0.9-0.1-1.2-0.4c-0.3-0.3-0.4-0.7-0.4-1.1c0-0.5,0.2-0.8,0.5-1.1s0.7-0.4,1.1-0.5s1-0.1,1.8-0.2l0.5,0
			V45.7z M74.4,47.7v-1.4l-0.3,0c-0.7,0.1-1.3,0.1-1.7,0.2c-0.4,0.1-0.7,0.2-0.9,0.3s-0.3,0.4-0.3,0.7c0,0.3,0.1,0.6,0.3,0.8
			c0.2,0.2,0.4,0.2,0.8,0.2c0.4,0,0.8-0.1,1.2-0.2C73.8,48.2,74.1,48,74.4,47.7z"/>
		<path fill="#051542" d="M80.5,41.1v5.1l2.6-2h-0.7c-0.1,0-0.2,0-0.2-0.1s-0.1-0.1-0.1-0.2s0-0.1,0.1-0.2c0.1-0.1,0.1-0.1,0.2-0.1
			h2.2c0.1,0,0.2,0,0.2,0.1s0.1,0.1,0.1,0.2c0,0.1,0,0.1-0.1,0.2c-0.1,0.1-0.1,0.1-0.2,0.1H84L81.8,46l2.3,2.5h0.6
			c0.1,0,0.2,0,0.2,0.1c0,0.1,0.1,0.1,0.1,0.2c0,0.1,0,0.1-0.1,0.2S84.8,49,84.7,49h-2.1c-0.1,0-0.2,0-0.2-0.1
			c-0.1-0.1-0.1-0.1-0.1-0.2c0-0.1,0-0.1,0.1-0.2s0.1-0.1,0.2-0.1h0.8l-2-2.2l-0.9,0.6v1.5h0.5c0.1,0,0.1,0,0.2,0.1
			c0,0.1,0.1,0.1,0.1,0.2c0,0.1,0,0.1-0.1,0.2S81,49,80.9,49h-2.3c-0.1,0-0.2,0-0.2-0.1c-0.1-0.1-0.1-0.1-0.1-0.2
			c0-0.1,0-0.1,0.1-0.2s0.1-0.1,0.2-0.1h1.2v-6.8l-1.2,0.2c0,0,0,0,0,0c-0.1,0-0.2,0-0.2-0.1c-0.1-0.1-0.1-0.1-0.1-0.2
			c0-0.1,0-0.1,0.1-0.2c0-0.1,0.1-0.1,0.2-0.1l1.6-0.3l0.1,0c0.1,0,0.1,0,0.2,0.1C80.4,41,80.5,41.1,80.5,41.1z"/>
		<path fill="#051542" d="M90.7,48.4c0,0.2-0.1,0.4-0.2,0.5s-0.3,0.2-0.5,0.2c-0.2,0-0.4-0.1-0.5-0.2c-0.1-0.1-0.2-0.3-0.2-0.5
			s0.1-0.4,0.2-0.5s0.3-0.2,0.5-0.2s0.4,0.1,0.5,0.2C90.7,48,90.7,48.2,90.7,48.4z"/>
		<path fill="#051542" d="M104,46.2c0-0.6,0.1-1.1,0.4-1.5s0.6-0.7,1.1-1s1-0.3,1.6-0.3c0.7,0,1.3,0.1,1.7,0.4s0.6,0.7,0.6,1.3
			c0,0.2,0,0.3-0.1,0.4s-0.2,0.2-0.3,0.2s-0.2-0.1-0.3-0.2c-0.1-0.2-0.1-0.4-0.1-0.9l0-0.3c-0.2-0.1-0.5-0.2-0.7-0.2
			s-0.5-0.1-0.7-0.1c-0.5,0-1,0.1-1.4,0.3s-0.7,0.4-0.9,0.8c-0.2,0.3-0.3,0.7-0.3,1.2c0,0.8,0.2,1.4,0.6,1.7c0.4,0.4,1,0.6,1.7,0.6
			c0.4,0,0.8-0.1,1.1-0.2s0.6-0.3,0.8-0.6c0.1-0.1,0.2-0.1,0.3-0.1c0.1,0,0.1,0,0.2,0.1s0.1,0.1,0.1,0.2c0,0.1,0,0.2-0.1,0.3
			c-0.2,0.3-0.6,0.5-1,0.6c-0.4,0.1-0.8,0.2-1.2,0.2c-0.6,0-1.1-0.1-1.6-0.3s-0.8-0.6-1.1-1C104.1,47.3,104,46.8,104,46.2z"/>
		<path fill="#051542" d="M112.5,46.3c0-0.6,0.1-1.1,0.4-1.5s0.6-0.8,1-1c0.4-0.2,0.9-0.3,1.5-0.3s1.1,0.1,1.5,0.3
			c0.4,0.2,0.8,0.6,1,1s0.4,0.9,0.4,1.5c0,0.6-0.1,1.1-0.4,1.5s-0.6,0.8-1,1s-0.9,0.3-1.5,0.3s-1.1-0.1-1.5-0.3s-0.8-0.6-1-1
			S112.5,46.8,112.5,46.3z M113.3,46.3c0,0.4,0.1,0.8,0.3,1.2c0.2,0.3,0.4,0.6,0.7,0.8s0.7,0.3,1.2,0.3s0.8-0.1,1.2-0.3
			c0.3-0.2,0.6-0.5,0.7-0.8c0.2-0.3,0.3-0.7,0.3-1.2c0-0.4-0.1-0.8-0.3-1.2c-0.2-0.3-0.4-0.6-0.7-0.8c-0.3-0.2-0.7-0.3-1.2-0.3
			s-0.8,0.1-1.2,0.3c-0.3,0.2-0.6,0.5-0.7,0.8C113.4,45.4,113.3,45.8,113.3,46.3z"/>
		<path fill="#051542" d="M125.9,49c-0.1,0-0.2,0-0.2-0.1c-0.1-0.1-0.1-0.1-0.1-0.3l0-0.4c-0.2,0.3-0.5,0.5-0.8,0.6
			c-0.4,0.2-0.7,0.2-1.2,0.2c-0.5,0-1-0.1-1.4-0.4c-0.4-0.2-0.7-0.6-0.9-1s-0.3-0.9-0.3-1.5c0-0.5,0.1-1,0.3-1.5
			c0.2-0.4,0.5-0.8,0.9-1c0.4-0.2,0.8-0.4,1.4-0.4c0.4,0,0.8,0.1,1.1,0.2c0.3,0.1,0.6,0.3,0.9,0.5v-2.6l-0.9,0.1c0,0,0,0-0.1,0
			s0,0-0.1,0c-0.1,0-0.1,0-0.2-0.1s-0.1-0.1-0.1-0.2c0-0.1,0-0.1,0.1-0.2s0.1-0.1,0.2-0.1l1.3-0.1c0.1,0,0.1,0,0.1,0
			c0.2,0,0.3,0.1,0.3,0.3v7.2l1-0.1h0c0.1,0,0.2,0,0.2,0.1s0.1,0.1,0.1,0.2s0,0.1-0.1,0.2c0,0.1-0.1,0.1-0.2,0.1L125.9,49L125.9,49z
			 M123.6,44c-0.4,0-0.8,0.1-1.1,0.3s-0.5,0.5-0.7,0.8s-0.2,0.7-0.2,1.1s0.1,0.8,0.2,1.1s0.4,0.6,0.7,0.8s0.6,0.3,1.1,0.3
			c0.8,0,1.5-0.3,1.9-1v-2.7C125,44.3,124.4,44,123.6,44z"/>
		<path fill="#051542" d="M129.6,46.2c0-0.6,0.1-1.1,0.4-1.5c0.3-0.4,0.6-0.7,1.1-1c0.5-0.2,1-0.3,1.5-0.3c0.5,0,0.9,0.1,1.3,0.3
			c0.4,0.2,0.7,0.4,0.9,0.8c0.2,0.3,0.3,0.8,0.3,1.2c0,0.2,0,0.3-0.1,0.4c-0.1,0.1-0.2,0.2-0.4,0.2l-4.3,0c0,0.7,0.2,1.3,0.7,1.6
			s1,0.6,1.7,0.6c0.3,0,0.7-0.1,1-0.2c0.3-0.1,0.6-0.3,0.9-0.6c0.1-0.1,0.2-0.1,0.3-0.1c0.1,0,0.1,0,0.2,0.1s0.1,0.1,0.1,0.2
			c0,0.1,0,0.2-0.1,0.3c-0.2,0.3-0.6,0.5-1,0.6c-0.4,0.2-0.9,0.2-1.2,0.2c-0.6,0-1.1-0.1-1.6-0.3c-0.5-0.2-0.8-0.6-1.1-1
			C129.7,47.3,129.6,46.8,129.6,46.2z M132.6,44c-0.7,0-1.2,0.2-1.6,0.5c-0.4,0.3-0.7,0.8-0.7,1.4l4.2,0c0-0.5-0.2-0.9-0.4-1.3
			S133.3,44,132.6,44z"/>
		<path fill="#051542" d="M141.6,48.4c0,0.2-0.1,0.4-0.2,0.5c-0.1,0.1-0.3,0.2-0.5,0.2c-0.2,0-0.4-0.1-0.5-0.2
			c-0.1-0.1-0.2-0.3-0.2-0.5s0.1-0.4,0.2-0.5c0.1-0.1,0.3-0.2,0.5-0.2s0.4,0.1,0.5,0.2C141.5,48,141.6,48.2,141.6,48.4z"/>
		<path fill="#051542" d="M159.9,44.8V44c-0.6,0-1.2,0.1-1.6,0.4c-0.5,0.2-0.8,0.6-1,1v3h2.3c0.1,0,0.2,0,0.2,0.1
			c0,0.1,0.1,0.1,0.1,0.2c0,0.1,0,0.1-0.1,0.2c0,0.1-0.1,0.1-0.2,0.1h-4.2c-0.1,0-0.2,0-0.2-0.1c-0.1-0.1-0.1-0.1-0.1-0.2
			c0-0.1,0-0.1,0.1-0.2s0.1-0.1,0.2-0.1h1.3v-4.3l-0.8,0.2c0,0,0,0-0.1,0c-0.1,0-0.2,0-0.2-0.1c0-0.1-0.1-0.1-0.1-0.2
			c0-0.1,0-0.1,0.1-0.2c0,0,0.1-0.1,0.2-0.1l1.2-0.2c0.1,0,0.1,0,0.2,0c0.1,0,0.2,0,0.2,0.1c0,0.1,0.1,0.2,0.1,0.3l0,0.7
			c0.5-0.8,1.4-1.2,2.7-1.2c0.2,0,0.4,0,0.5,0.1s0.1,0.2,0.1,0.3v0.9c0,0.1,0,0.2-0.1,0.3c-0.1,0.1-0.1,0.1-0.2,0.1
			c-0.1,0-0.2,0-0.2-0.1C159.9,45,159.9,44.9,159.9,44.8z"/>
		<path fill="#051542" d="M163.5,46.2c0-0.6,0.1-1.1,0.4-1.5c0.3-0.4,0.6-0.7,1.1-1c0.5-0.2,1-0.3,1.5-0.3c0.5,0,0.9,0.1,1.3,0.3
			c0.4,0.2,0.7,0.4,0.9,0.8c0.2,0.3,0.3,0.8,0.3,1.2c0,0.2,0,0.3-0.1,0.4c-0.1,0.1-0.2,0.2-0.4,0.2l-4.3,0c0,0.7,0.2,1.3,0.7,1.6
			s1,0.6,1.7,0.6c0.3,0,0.7-0.1,1-0.2c0.3-0.1,0.6-0.3,0.9-0.6c0.1-0.1,0.2-0.1,0.3-0.1c0.1,0,0.1,0,0.2,0.1s0.1,0.1,0.1,0.2
			c0,0.1,0,0.2-0.1,0.3c-0.2,0.3-0.6,0.5-1,0.6c-0.4,0.2-0.9,0.2-1.2,0.2c-0.6,0-1.1-0.1-1.6-0.3c-0.5-0.2-0.8-0.6-1.1-1
			C163.6,47.3,163.5,46.8,163.5,46.2z M166.5,44c-0.7,0-1.2,0.2-1.6,0.5c-0.4,0.3-0.7,0.8-0.7,1.4l4.2,0c0-0.5-0.2-0.9-0.4-1.3
			S167.2,44,166.5,44z"/>
		<path fill="#051542" d="M173.2,43.8l0,0.5c0.2-0.2,0.5-0.4,0.9-0.6c0.3-0.2,0.7-0.2,1.1-0.2c0.5,0,1,0.1,1.4,0.4
			c0.4,0.2,0.7,0.6,0.9,1s0.3,0.9,0.3,1.5c0,0.5-0.1,1-0.3,1.5c-0.2,0.4-0.5,0.8-0.9,1c-0.4,0.2-0.8,0.4-1.4,0.4
			c-0.4,0-0.8-0.1-1.1-0.2c-0.3-0.1-0.6-0.3-0.9-0.5V51h1.5c0.1,0,0.2,0,0.2,0.1c0.1,0.1,0.1,0.1,0.1,0.2c0,0.1,0,0.1-0.1,0.2
			s-0.1,0.1-0.2,0.1H172c-0.1,0-0.2,0-0.2-0.1c-0.1-0.1-0.1-0.1-0.1-0.2c0-0.1,0-0.1,0.1-0.2c0-0.1,0.1-0.1,0.2-0.1h0.6v-6.8
			l-0.7,0.1c0,0,0,0-0.1,0s0,0-0.1,0c-0.1,0-0.1,0-0.2-0.1s-0.1-0.1-0.1-0.2c0-0.1,0-0.1,0.1-0.2c0-0.1,0.1-0.1,0.2-0.1l1.1-0.2
			c0.1,0,0.1,0,0.1,0C173.1,43.5,173.2,43.6,173.2,43.8z M175.2,48.6c0.4,0,0.8-0.1,1.1-0.3s0.5-0.5,0.7-0.8s0.2-0.7,0.2-1.1
			c0-0.4-0.1-0.8-0.2-1.1c-0.1-0.3-0.4-0.6-0.6-0.8s-0.6-0.3-1-0.3c-0.4,0-0.8,0.1-1.1,0.3c-0.3,0.2-0.6,0.4-0.8,0.7v2.7
			C173.8,48.3,174.4,48.6,175.2,48.6z"/>
		<path fill="#051542" d="M180.5,46.2c0-0.6,0.1-1.1,0.4-1.5c0.3-0.4,0.6-0.7,1.1-1c0.5-0.2,1-0.3,1.5-0.3c0.5,0,0.9,0.1,1.3,0.3
			c0.4,0.2,0.7,0.4,0.9,0.8c0.2,0.3,0.3,0.8,0.3,1.2c0,0.2,0,0.3-0.1,0.4c-0.1,0.1-0.2,0.2-0.4,0.2l-4.3,0c0,0.7,0.2,1.3,0.7,1.6
			s1,0.6,1.7,0.6c0.3,0,0.7-0.1,1-0.2c0.3-0.1,0.6-0.3,0.9-0.6c0.1-0.1,0.2-0.1,0.3-0.1c0.1,0,0.1,0,0.2,0.1s0.1,0.1,0.1,0.2
			c0,0.1,0,0.2-0.1,0.3c-0.2,0.3-0.6,0.5-1,0.6c-0.4,0.2-0.9,0.2-1.2,0.2c-0.6,0-1.1-0.1-1.6-0.3c-0.5-0.2-0.8-0.6-1.1-1
			C180.6,47.3,180.5,46.8,180.5,46.2z M183.5,44c-0.7,0-1.2,0.2-1.6,0.5c-0.4,0.3-0.7,0.8-0.7,1.4l4.2,0c0-0.5-0.2-0.9-0.4-1.3
			S184.2,44,183.5,44z"/>
		<path fill="#051542" d="M193,45.7c0-0.5-0.1-0.9-0.3-1.2c-0.2-0.3-0.6-0.4-1.1-0.4c-0.3,0-0.5,0-0.8,0.1c-0.2,0-0.5,0.1-0.7,0.2
			c0,0.4-0.1,0.6-0.1,0.8s-0.2,0.3-0.3,0.3c-0.1,0-0.2,0-0.3-0.1c-0.1-0.1-0.1-0.2-0.1-0.4c0-0.3,0.1-0.5,0.3-0.7s0.5-0.4,0.8-0.5
			s0.8-0.2,1.2-0.2c0.5,0,0.9,0.1,1.2,0.3c0.3,0.2,0.5,0.5,0.6,0.8c0.1,0.4,0.2,0.8,0.2,1.4v2.1c0,0.2,0,0.3,0.1,0.3
			c0.1,0.1,0.2,0.1,0.3,0.1c0.1,0,0.2,0,0.4-0.1c0.1-0.1,0.2-0.1,0.3-0.2c0-0.1,0.1-0.1,0.2-0.1c0.1,0,0.1,0,0.2,0.1
			s0.1,0.1,0.1,0.2c0,0.1,0,0.1-0.1,0.2c-0.1,0.2-0.3,0.3-0.5,0.4c-0.2,0.1-0.4,0.1-0.6,0.1c-0.2,0-0.4-0.1-0.6-0.2
			c-0.2-0.1-0.3-0.3-0.3-0.7c-0.2,0.3-0.5,0.5-0.9,0.6c-0.4,0.2-0.8,0.3-1.3,0.3c-0.5,0-0.9-0.1-1.2-0.4c-0.3-0.3-0.4-0.7-0.4-1.1
			c0-0.5,0.2-0.8,0.5-1.1s0.7-0.4,1.1-0.5c0.4-0.1,1-0.1,1.8-0.2l0.5,0V45.7z M193,47.7v-1.4l-0.3,0c-0.7,0.1-1.3,0.1-1.7,0.2
			c-0.4,0.1-0.7,0.2-0.9,0.3s-0.3,0.4-0.3,0.7c0,0.3,0.1,0.6,0.3,0.8c0.2,0.2,0.4,0.2,0.8,0.2c0.4,0,0.8-0.1,1.2-0.2
			C192.5,48.2,192.8,48,193,47.7z"/>
		<path fill="#051542" d="M199.4,44.3v3.3c0,0.3,0.1,0.6,0.3,0.7c0.2,0.2,0.5,0.2,0.9,0.2c0.3,0,0.7-0.1,1-0.2
			c0.3-0.1,0.6-0.2,0.8-0.4c0,0,0,0,0.1,0c0.1,0,0.1,0,0.2,0.1s0.1,0.2,0.1,0.2c0,0,0,0.1,0,0.1c-0.1,0.1-0.3,0.2-0.5,0.3
			c-0.2,0.1-0.5,0.2-0.8,0.3c-0.3,0.1-0.6,0.1-0.9,0.1c-0.3,0-0.6-0.1-0.9-0.2c-0.3-0.1-0.5-0.3-0.6-0.5c-0.2-0.2-0.2-0.4-0.2-0.6
			v-3.6h-1c-0.1,0-0.2,0-0.2-0.1s-0.1-0.1-0.1-0.2c0-0.1,0-0.1,0.1-0.2c0-0.1,0.1-0.1,0.2-0.1h1c0-0.6,0-1,0-1.2s0-0.4,0.1-0.5
			c0.1-0.1,0.2-0.2,0.3-0.2c0.1,0,0.2,0,0.2,0.1c0,0.1,0,0.1,0,0.2v1.6h2.5c0.1,0,0.1,0,0.2,0.1c0,0.1,0.1,0.1,0.1,0.2
			c0,0.1,0,0.1-0.1,0.2c0,0.1-0.1,0.1-0.2,0.1H199.4z"/>
		<path fill="#051542" d="M209.4,48.4c0,0.2-0.1,0.4-0.2,0.5c-0.1,0.1-0.3,0.2-0.5,0.2c-0.2,0-0.4-0.1-0.5-0.2
			c-0.1-0.1-0.2-0.3-0.2-0.5s0.1-0.4,0.2-0.5c0.1-0.1,0.3-0.2,0.5-0.2s0.4,0.1,0.5,0.2C209.3,48,209.4,48.2,209.4,48.4z"/>
	</g>
</g>
</svg>
